<svg xmlns="http://www.w3.org/2000/svg" viewBox="0 0 512 512" width="512" height="512">
  <defs>
    <linearGradient id="goldGrad" x1="0%" y1="0%" x2="100%" y2="100%">
      <stop offset="0%" stop-color="#fbbf24" />
      <stop offset="100%" stop-color="#d97706" />
    </linearGradient>
    <linearGradient id="bgGrad" x1="0%" y1="0%" x2="100%" y2="100%">
      <stop offset="0%" stop-color="#0f172a" />
      <stop offset="100%" stop-color="#1e293b" />
    </linearGradient>
  </defs>
  <!-- Main Rounded Background -->
  <rect width="512" height="512" rx="112" fill="url(#bgGrad)" />
  
  <!-- Subtle inner gradient ring -->
  <rect x="16" y="16" width="480" height="480" rx="96" fill="none" stroke="url(#goldGrad)" stroke-width="4" opacity="0.2" />

  <!-- Stylized Chess Knight -->
  <g transform="translate(116, 96)" fill="url(#goldGrad)">
    <path d="M 120 40 C 170 30, 210 70, 200 120 C 195 145, 175 160, 185 180 C 190 190, 205 190, 215 190 C 230 190, 245 175, 245 155 C 245 145, 235 135, 240 125 C 245 115, 255 120, 260 135 C 270 160, 255 210, 220 235 C 205 245, 205 255, 215 270 C 225 285, 240 285, 250 300 C 255 310, 250 320, 230 320 L 50 320 C 40 320, 30 310, 35 295 C 40 280, 55 275, 45 255 C 35 235, 20 230, 30 200 C 40 170, 60 172, 70 145 C 77 125, 70 110, 75 90 C 80 70, 100 45, 120 40 Z" />
    <!-- Knight Eye -->
    <circle cx="125" cy="100" r="12" fill="#0f172a" />
    <circle cx="127" cy="98" r="4" fill="#ffffff" />
    <!-- Pedestal Base -->
    <path d="M 30 310 L 250 310 C 260 310, 260 330, 250 330 L 30 330 C 20 330, 20 310, 30 310 Z" opacity="0.9" />
  </g>
</svg>
